# xmcd CD database file
#
# Track frame offsets:
#	150
#	82956
#	123041
#	179478
#	236256
#
# Disc length: 3697 seconds
#
# Revision: 0
# Processed by: cddbd v1.5.1PL0 Copyright (c) Steve Scherf et al.
# Submitted via: CDex 1.51
#
DISCID=2f0e6f05
DTITLE=Mal Waldron and Steve Lacy - Mal Waldron With The Steve Lacy Quintet
DYEAR=1972
DGENRE=Jazz
TTITLE0=Vio
TTITLE1=Jump For Victor
TTITLE2=Blue Wee
TTITLE3=Vio (alt take)
TTITLE4=Jump For Victor (alt take)
EXTD=YEAR: 1972
EXTT0=
EXTT1=
EXTT2=
EXTT3=
EXTT4=
PLAYORDER=
